<svg xmlns="http://www.w3.org/2000/svg" xmlns:xlink="http://www.w3.org/1999/xlink" width="1088" height="500" viewBox="0 0 1088 500">
  <defs>
    <clipPath id="clip-path">
      <rect id="Rectangle_2" data-name="Rectangle 2" width="1088" height="500" transform="translate(139 841)" fill="#fff" stroke="#707070" stroke-width="1"/>
    </clipPath>
  </defs>
  <g id="introduction-image" transform="translate(-139 -841)" clip-path="url(#clip-path)">
    <g id="Connecting" transform="translate(139 905.976)">
      <g id="Layer_4" data-name="Layer 4">
        <circle id="Ellipse_2" data-name="Ellipse 2" cx="5.097" cy="5.097" r="5.097" transform="translate(122.636 85.172)" fill="#fff"/>
        <circle id="Ellipse_3" data-name="Ellipse 3" cx="5.097" cy="5.097" r="5.097" transform="translate(286.813 117.233)" fill="#fff"/>
        <circle id="Ellipse_4" data-name="Ellipse 4" cx="6.371" cy="6.371" r="6.371" transform="translate(323.767 159.284)" fill="#fff"/>
        <circle id="Ellipse_5" data-name="Ellipse 5" cx="5.097" cy="5.097" r="5.097" transform="translate(350.935 47.352)" fill="#fff"/>
        <circle id="Ellipse_6" data-name="Ellipse 6" cx="5.097" cy="5.097" r="5.097" transform="translate(472.857 188.592)" fill="#fff"/>
        <circle id="Ellipse_7" data-name="Ellipse 7" cx="5.097" cy="5.097" r="5.097" transform="translate(541.668 180.947)" fill="#fff"/>
        <circle id="Ellipse_8" data-name="Ellipse 8" cx="2.549" cy="2.549" r="2.549" transform="translate(474.539 88.766)" fill="#fff"/>
        <circle id="Ellipse_9" data-name="Ellipse 9" cx="5.097" cy="5.097" r="5.097" transform="translate(312.299 246.495)" fill="#fff"/>
        <circle id="Ellipse_10" data-name="Ellipse 10" cx="5.097" cy="5.097" r="5.097" transform="translate(371.527 233.906)" fill="#fff"/>
        <circle id="Ellipse_11" data-name="Ellipse 11" cx="5.097" cy="5.097" r="5.097" transform="translate(0 213.135)" fill="#fff"/>
        <circle id="Ellipse_12" data-name="Ellipse 12" cx="5.097" cy="5.097" r="5.097" transform="translate(0 41.414)" fill="#fff"/>
        <circle id="Ellipse_13" data-name="Ellipse 13" cx="5.097" cy="5.097" r="5.097" transform="translate(322.264 39.834)" fill="#fff"/>
        <circle id="Ellipse_14" data-name="Ellipse 14" cx="5.097" cy="5.097" r="5.097" transform="translate(214.588 125.72)" fill="#fff"/>
        <circle id="Ellipse_15" data-name="Ellipse 15" cx="5.097" cy="5.097" r="5.097" transform="translate(195.474 132.728)" fill="#fff"/>
        <circle id="Ellipse_16" data-name="Ellipse 16" cx="5.097" cy="5.097" r="5.097" transform="translate(362.301 143.356)" fill="#fff"/>
        <circle id="Ellipse_17" data-name="Ellipse 17" cx="5.097" cy="5.097" r="5.097" transform="translate(352.744 28.314)" fill="#fff"/>
        <circle id="Ellipse_18" data-name="Ellipse 18" cx="5.097" cy="5.097" r="5.097" transform="translate(558.616 155.461)" fill="#fff"/>
        <circle id="Ellipse_19" data-name="Ellipse 19" cx="5.097" cy="5.097" r="5.097" transform="translate(665.273 151.435)" fill="#fff"/>
        <circle id="Ellipse_20" data-name="Ellipse 20" cx="5.097" cy="5.097" r="5.097" transform="translate(717.288 163.107)" fill="#fff"/>
        <circle id="Ellipse_21" data-name="Ellipse 21" cx="5.097" cy="5.097" r="5.097" transform="translate(741.5 198.048)" fill="#fff"/>
        <circle id="Ellipse_22" data-name="Ellipse 22" cx="5.097" cy="5.097" r="5.097" transform="translate(805.443 174.091)" fill="#fff"/>
        <circle id="Ellipse_23" data-name="Ellipse 23" cx="5.097" cy="5.097" r="5.097" transform="translate(844.716 228.528)" fill="#fff"/>
        <circle id="Ellipse_24" data-name="Ellipse 24" cx="5.097" cy="5.097" r="5.097" transform="translate(747.234 163.107)" fill="#fff"/>
        <circle id="Ellipse_25" data-name="Ellipse 25" cx="5.097" cy="5.097" r="5.097" transform="translate(682.042 245.986)" fill="#fff"/>
        <circle id="Ellipse_26" data-name="Ellipse 26" cx="5.097" cy="5.097" r="5.097" transform="translate(1077.806 76.66)" fill="#fff"/>
        <circle id="Ellipse_27" data-name="Ellipse 27" cx="5.097" cy="5.097" r="5.097" transform="translate(1077.806 249.324)" fill="#fff"/>
        <circle id="Ellipse_28" data-name="Ellipse 28" cx="5.097" cy="5.097" r="5.097" transform="translate(955.578 192.211)" fill="#fff"/>
        <circle id="Ellipse_29" data-name="Ellipse 29" cx="5.097" cy="5.097" r="5.097" transform="translate(932.641 156.939)" fill="#fff"/>
        <circle id="Ellipse_30" data-name="Ellipse 30" cx="5.097" cy="5.097" r="5.097" transform="translate(921.402 221.52)" fill="#fff"/>
        <circle id="Ellipse_31" data-name="Ellipse 31" cx="5.097" cy="5.097" r="5.097" transform="translate(848.131 265.686)" fill="#fff"/>
        <circle id="Ellipse_32" data-name="Ellipse 32" cx="5.097" cy="5.097" r="5.097" transform="translate(712.421 359.855)" fill="#fff"/>
        <circle id="Ellipse_33" data-name="Ellipse 33" cx="5.097" cy="5.097" r="5.097" transform="translate(727.839 359.855)" fill="#fff"/>
      </g>
      <g id="Layer_3" data-name="Layer 3" opacity="0.65">
        <path id="Path_2" data-name="Path 2" d="M356.032,53.723l32.494,11.468s50.971,6.371,64.988,17.2l14.654,3.823,8.92,4.46,15.928,28.034L505.122,134s11.468,2.778,19.547,23.166l5.1,8.283s13.38,11.035,15.291,18.044l1.708,2.345s-.229,5.1-7.875,5.938c0,0-29.945,17.407-52.882-22.733l-21.968-15.6S446,126.408,442.045,124.624s-33.972,2.166-53.519-9.735L379.2,106.4" fill="none" stroke="#fff" stroke-miterlimit="10" stroke-width="2.549"/>
      </g>
      <g id="Layer_2" data-name="Layer 2" opacity="0.65">
        <path id="Path_3" data-name="Path 3" d="M5.1,46.078S73.373-15.928,179.545,8.716l72.226,11.876s73.041,7.646,90.881,9.353L357.943,34.2,379.2,53.723" fill="none" stroke="#fff" stroke-miterlimit="10" stroke-width="2.549"/>
        <path id="Path_4" data-name="Path 4" d="M465.416,160.762s5.938,21.663,9.353,28.9a34,34,0,0,1,2.549,15.7s6.779,11.061,7.212,17.84-.841,17-28.034,5.53l-5.1-2.982-12.309-20.388-5.964-17.84a41.414,41.414,0,0,1-14.858-26.76s-38.228-29.716-32.29-34.405" fill="none" stroke="#fff" stroke-miterlimit="10" stroke-width="2.549"/>
        <path id="Path_5" data-name="Path 5" d="M452.469,232.988s4.46,20.159-20.822,6.371c0,0-14.45-5.53-17.2-26.556v-3.619l3.186-7.416" fill="none" stroke="#fff" stroke-miterlimit="10" stroke-width="2.549"/>
        <path id="Path_6" data-name="Path 6" d="M5.1,218.283l56.068-43.555c26.123-33.131,80.712-55.151,80.712-55.151l10.194,2.549s14.45,39.91,62.439,39.069S283.4,191.141,283.4,191.141l20.083,20.388L336.408,229.9l9.43,9.659,13.711,6.04c46.511-4.868,5.4-54.462,5.4-54.462l-14.017-11.8a77.4,77.4,0,0,0-14.527-11.468c-20.388-5.734-42.816-43.147-42.816-43.147,10.831-3.007,42.051-14.2,42.051-14.2,12.743,9.557,43.555,7.646,43.555,7.646" fill="none" stroke="#fff" stroke-miterlimit="10" stroke-width="2.549"/>
        <path id="Path_7" data-name="Path 7" d="M315.281,218.054l-3.211,4.919-1.682,4.052c1.682,44.192,29.308,15.291,29.308,15.291l4.638-4.384" fill="none" stroke="#fff" stroke-miterlimit="10" stroke-width="2.549"/>
        <path id="Path_8" data-name="Path 8" d="M349.457,201.768l-13.049,16.515,16.03,15.623s15.419,4.536,16.566-15.623Z" fill="none" stroke="#fff" stroke-miterlimit="10" stroke-width="2.549"/>
        <path id="Path_9" data-name="Path 9" d="M527.218,168.2s1.274,13.176,9.124,15.5" fill="none" stroke="#fff" stroke-miterlimit="10" stroke-width="2.549"/>
        <line id="Line_1" data-name="Line 1" x1="7.416" y1="8.92" transform="translate(381.11 56.272)" fill="none" stroke="#fff" stroke-miterlimit="10" stroke-width="2.549"/>
        <path id="Path_10" data-name="Path 10" d="M309.139,146.159s10.194-6.295,18.859,0c0,0,9.353,16.744,1.172,18.375" fill="none" stroke="#fff" stroke-miterlimit="10" stroke-width="2.549"/>
        <path id="Path_11" data-name="Path 11" d="M345.838,141.011s-16.209-.586-16.158,8.512" fill="none" stroke="#fff" stroke-miterlimit="10" stroke-width="2.549"/>
        <path id="Path_12" data-name="Path 12" d="M1082.9,81.757l-66.262,11.468a194.836,194.836,0,0,0-79,11.468s-56.068-5.1-75.182,10.194c0,0-35.68-2.192-58.617,9.735,0,0-25.485,5.556-73.908,11.519,0,0-64.988-18.706-103.216,4.231,0,0-49.263-1.682-59.891,11.468s8.512,21.663,8.512,21.663,30.99,11.9,47.148,3.823l2.549-1.045-.433-4.893,3.823,4.664s29.945,1.274,39.706-2.752l5.734-1.478s-6.371-11.468-3.823-15.725" fill="none" stroke="#fff" stroke-miterlimit="10" stroke-width="2.549"/>
        <path id="Path_13" data-name="Path 13" d="M677.378,173.505,700.315,183.7s8.92,2.549,24.211,0" fill="none" stroke="#fff" stroke-miterlimit="10" stroke-width="2.549"/>
        <path id="Path_14" data-name="Path 14" d="M722.386,168.2a50.258,50.258,0,0,0,4.689,18.477,134.847,134.847,0,0,0,15.7,13.176l2.549,3.39s-15.7,11.9-20.8,17l-8.359,7.646" fill="none" stroke="#fff" stroke-miterlimit="10" stroke-width="2.549"/>
        <path id="Path_15" data-name="Path 15" d="M752.331,168.2s9.684,27.6,26.76,30.149" fill="none" stroke="#fff" stroke-miterlimit="10" stroke-width="2.549"/>
        <path id="Path_16" data-name="Path 16" d="M810.438,179.188,782.4,203.45l-11.469,7.009s-49.06,10.831-56.705,19.114l-22.937,9.557s-12.743,13.38,7.008,27.4c0,0,15.291,12.743,47.148,5.1l20.388-12.743,35.68-8.92,29.308-3.186A61.163,61.163,0,0,0,849.94,233.4" fill="none" stroke="#fff" stroke-miterlimit="10" stroke-width="2.549"/>
        <path id="Path_17" data-name="Path 17" d="M706.253,274.071l-2.115,19.216s-8.079,13.609-3.186,36.954l1.86,19.981s6.83,24.619,25.1,10.194c0,0,8.92-8.92,2.982-31.449l-8.512-5.5" fill="none" stroke="#fff" stroke-miterlimit="10" stroke-width="2.549"/>
        <path id="Path_18" data-name="Path 18" d="M732.937,325.577l-2.039,3.39s15.47-23.319,10.6-39.5a14.4,14.4,0,0,0-16.973-9.328" fill="none" stroke="#fff" stroke-miterlimit="10" stroke-width="2.549"/>
        <path id="Path_19" data-name="Path 19" d="M768.489,262.7S741.3,275.6,741.5,289.464" fill="none" stroke="#fff" stroke-miterlimit="10" stroke-width="2.549"/>
        <path id="Path_20" data-name="Path 20" d="M842.8,279.779c-5.734-.153-29.614-5.913-33.131-7.824s-15.928-15.928-15.928-15.928l-2.166-3.593" fill="none" stroke="#fff" stroke-miterlimit="10" stroke-width="2.549"/>
        <path id="Path_21" data-name="Path 21" d="M729.471,358.224l4.511,6.728s6.371,7.034,18.477-5.4l5.428-8.283a45.543,45.543,0,0,0,3.823-22.3,36.75,36.75,0,0,0,14.96-26.123s7.849-11.265,25.817-19.42h3.186l-4.791,16.566L798.026,317.5s.306,19.445,2.549,21.357l3.186,12.411s9.735,15.291,19.675,3.517c0,0,7.085-4.46,5.811-24.211,0,0-11.468-8.563-15.623-5.4" fill="none" stroke="#fff" stroke-miterlimit="10" stroke-width="2.549"/>
        <path id="Path_22" data-name="Path 22" d="M829.272,328.966s5.25-4.766,5.25-17.509c0,0-8.589-12.743-16.234-8.283" fill="none" stroke="#fff" stroke-miterlimit="10" stroke-width="2.549"/>
        <path id="Path_23" data-name="Path 23" d="M834.522,311.458l6.7-7.085c8.92-19.726,23.88-20.949,23.88-20.949s26.123,8.589,84.1-27.4c0,0,11.469,8.589,31.22-12.437,0,0,9.251-9.863,33.462-6.677,0,0,47.454,4.766,66.262,15.928l2.752,1.911" fill="none" stroke="#fff" stroke-miterlimit="10" stroke-width="2.549"/>
        <path id="Path_24" data-name="Path 24" d="M842.8,250.828s18.069,3.186,71.589-14.552l11.468-9.659" fill="none" stroke="#fff" stroke-miterlimit="10" stroke-width="2.549"/>
        <path id="Path_25" data-name="Path 25" d="M853.228,270.783s6.346,11.825,11.876,12.743" fill="none" stroke="#fff" stroke-miterlimit="10" stroke-width="2.549"/>
        <path id="Path_26" data-name="Path 26" d="M960.8,197.308s11.468,46.282,19.751,46.282" fill="none" stroke="#fff" stroke-miterlimit="10" stroke-width="2.549"/>
        <path id="Path_27" data-name="Path 27" d="M937.865,162.037s18.451,21.663,0,45.874" fill="none" stroke="#fff" stroke-miterlimit="10" stroke-width="2.549"/>
        <path id="Path_28" data-name="Path 28" d="M700.85,243.921l10.933,20.694,12.743-8.589s12.743-18.426-8.359-18.477l-15.291,4.766Z" fill="none" stroke="#fff" stroke-miterlimit="10" stroke-width="2.549"/>
        <path id="Path_29" data-name="Path 29" d="M761.582,328.966a43.326,43.326,0,0,1-16.26,0" fill="none" stroke="#fff" stroke-miterlimit="10" stroke-width="2.549"/>
        <path id="Path_30" data-name="Path 30" d="M776.542,302.844s-8.487-17.2-14.96-13.38" fill="none" stroke="#fff" stroke-miterlimit="10" stroke-width="2.549"/>
        <path id="Path_31" data-name="Path 31" d="M390.233,173.505l-4.868-4.231s-13.609-13.813-17.228-18.069c0,0,2.141,31.22-4.664,33.768l.535,5.25" fill="none" stroke="#fff" stroke-miterlimit="10" stroke-width="2.549"/>
        <path id="Path_32" data-name="Path 32" d="M414.445,212.8l-5.734-7.442s-17.407-22.3-18.477-31.857l9.251-8.92" fill="none" stroke="#fff" stroke-miterlimit="10" stroke-width="2.549"/>
        <path id="Path_33" data-name="Path 33" d="M219.685,130.817s2.345,22.3,10.194,31.22" fill="none" stroke="#fff" stroke-miterlimit="10" stroke-width="2.549"/>
        <path id="Path_34" data-name="Path 34" d="M200.571,137.825s9.047,22.606,19.114,23.421" fill="none" stroke="#fff" stroke-miterlimit="10" stroke-width="2.549"/>
        <path id="Path_35" data-name="Path 35" d="M127.733,90.27s21.816,22.606,22.478,31.424" fill="none" stroke="#fff" stroke-miterlimit="10" stroke-width="2.549"/>
        <path id="Path_36" data-name="Path 36" d="M210.128,13.737S287.909,47.276,327.361,44.8" fill="none" stroke="#fff" stroke-miterlimit="10" stroke-width="2.549"/>
        <circle id="Ellipse_34" data-name="Ellipse 34" cx="5.097" cy="5.097" r="5.097" transform="translate(810.056 355.038)" fill="#fff"/>
      </g>
      <g id="Layer_5" data-name="Layer 5">
        <circle id="Ellipse_35" data-name="Ellipse 35" cx="5.097" cy="5.097" r="5.097" transform="translate(105.867)" fill="#fff"/>
        <circle id="Ellipse_36" data-name="Ellipse 36" cx="5.097" cy="5.097" r="5.097" transform="translate(218.003 10.194)" fill="#fff"/>
        <circle id="Ellipse_37" data-name="Ellipse 37" cx="5.097" cy="5.097" r="5.097" transform="translate(138.998 112.136)" fill="#fff"/>
      </g>
    </g>
  </g>
</svg>
