<svg xmlns="http://www.w3.org/2000/svg" xmlns:xlink="http://www.w3.org/1999/xlink" width="1088" height="500" viewBox="0 0 1088 500" style="">
  <defs>
    <clipPath id="clip-path">
      <path id="Rectangle_2" data-name="Rectangle 2" width="1088" height="500" transform="translate(139 841)" fill="#fff" stroke="#707070" stroke-width="1" d="M0 0 L1088 0 L1088 500 L0 500 Z" class="qsWlMZCW_0"></path>
    </clipPath>
  </defs>
  <g id="introduction-image" transform="translate(-139 -841)" clip-path="url(#clip-path)">
    <g id="Connecting" transform="translate(139 905.976)">
      <g id="Layer_4" data-name="Layer 4">
        <path id="Ellipse_2" data-name="Ellipse 2" transform="translate(122.636 85.172)" fill="#fff" d="M0,5.097A5.097,5.097 0,1,1 10.194,5.097A5.097,5.097 0,1,1 0,5.097" class="qsWlMZCW_1"></path>
        <path id="Ellipse_3" data-name="Ellipse 3" transform="translate(286.813 117.233)" fill="#fff" d="M0,5.097A5.097,5.097 0,1,1 10.194,5.097A5.097,5.097 0,1,1 0,5.097" class="qsWlMZCW_2"></path>
        <path id="Ellipse_4" data-name="Ellipse 4" transform="translate(323.767 159.284)" fill="#fff" d="M0,6.371A6.371,6.371 0,1,1 12.742,6.371A6.371,6.371 0,1,1 0,6.371" class="qsWlMZCW_3"></path>
        <path id="Ellipse_5" data-name="Ellipse 5" transform="translate(350.935 47.352)" fill="#fff" d="M0,5.097A5.097,5.097 0,1,1 10.194,5.097A5.097,5.097 0,1,1 0,5.097" class="qsWlMZCW_4"></path>
        <path id="Ellipse_6" data-name="Ellipse 6" transform="translate(472.857 188.592)" fill="#fff" d="M0,5.097A5.097,5.097 0,1,1 10.194,5.097A5.097,5.097 0,1,1 0,5.097" class="qsWlMZCW_5"></path>
        <path id="Ellipse_7" data-name="Ellipse 7" transform="translate(541.668 180.947)" fill="#fff" d="M0,5.097A5.097,5.097 0,1,1 10.194,5.097A5.097,5.097 0,1,1 0,5.097" class="qsWlMZCW_6"></path>
        <path id="Ellipse_8" data-name="Ellipse 8" transform="translate(474.539 88.766)" fill="#fff" d="M0,2.549A2.549,2.549 0,1,1 5.098,2.549A2.549,2.549 0,1,1 0,2.549" class="qsWlMZCW_7"></path>
        <path id="Ellipse_9" data-name="Ellipse 9" transform="translate(312.299 246.495)" fill="#fff" d="M0,5.097A5.097,5.097 0,1,1 10.194,5.097A5.097,5.097 0,1,1 0,5.097" class="qsWlMZCW_8"></path>
        <path id="Ellipse_10" data-name="Ellipse 10" transform="translate(371.527 233.906)" fill="#fff" d="M0,5.097A5.097,5.097 0,1,1 10.194,5.097A5.097,5.097 0,1,1 0,5.097" class="qsWlMZCW_9"></path>
        <path id="Ellipse_11" data-name="Ellipse 11" transform="translate(0 213.135)" fill="#fff" d="M0,5.097A5.097,5.097 0,1,1 10.194,5.097A5.097,5.097 0,1,1 0,5.097" class="qsWlMZCW_10"></path>
        <path id="Ellipse_12" data-name="Ellipse 12" transform="translate(0 41.414)" fill="#fff" d="M0,5.097A5.097,5.097 0,1,1 10.194,5.097A5.097,5.097 0,1,1 0,5.097" class="qsWlMZCW_11"></path>
        <path id="Ellipse_13" data-name="Ellipse 13" transform="translate(322.264 39.834)" fill="#fff" d="M0,5.097A5.097,5.097 0,1,1 10.194,5.097A5.097,5.097 0,1,1 0,5.097" class="qsWlMZCW_12"></path>
        <path id="Ellipse_14" data-name="Ellipse 14" transform="translate(214.588 125.72)" fill="#fff" d="M0,5.097A5.097,5.097 0,1,1 10.194,5.097A5.097,5.097 0,1,1 0,5.097" class="qsWlMZCW_13"></path>
        <path id="Ellipse_15" data-name="Ellipse 15" transform="translate(195.474 132.728)" fill="#fff" d="M0,5.097A5.097,5.097 0,1,1 10.194,5.097A5.097,5.097 0,1,1 0,5.097" class="qsWlMZCW_14"></path>
        <path id="Ellipse_16" data-name="Ellipse 16" transform="translate(362.301 143.356)" fill="#fff" d="M0,5.097A5.097,5.097 0,1,1 10.194,5.097A5.097,5.097 0,1,1 0,5.097" class="qsWlMZCW_15"></path>
        <path id="Ellipse_17" data-name="Ellipse 17" transform="translate(352.744 28.314)" fill="#fff" d="M0,5.097A5.097,5.097 0,1,1 10.194,5.097A5.097,5.097 0,1,1 0,5.097" class="qsWlMZCW_16"></path>
        <path id="Ellipse_18" data-name="Ellipse 18" transform="translate(558.616 155.461)" fill="#fff" d="M0,5.097A5.097,5.097 0,1,1 10.194,5.097A5.097,5.097 0,1,1 0,5.097" class="qsWlMZCW_17"></path>
        <path id="Ellipse_19" data-name="Ellipse 19" transform="translate(665.273 151.435)" fill="#fff" d="M0,5.097A5.097,5.097 0,1,1 10.194,5.097A5.097,5.097 0,1,1 0,5.097" class="qsWlMZCW_18"></path>
        <path id="Ellipse_20" data-name="Ellipse 20" transform="translate(717.288 163.107)" fill="#fff" d="M0,5.097A5.097,5.097 0,1,1 10.194,5.097A5.097,5.097 0,1,1 0,5.097" class="qsWlMZCW_19"></path>
        <path id="Ellipse_21" data-name="Ellipse 21" transform="translate(741.5 198.048)" fill="#fff" d="M0,5.097A5.097,5.097 0,1,1 10.194,5.097A5.097,5.097 0,1,1 0,5.097" class="qsWlMZCW_20"></path>
        <path id="Ellipse_22" data-name="Ellipse 22" transform="translate(805.443 174.091)" fill="#fff" d="M0,5.097A5.097,5.097 0,1,1 10.194,5.097A5.097,5.097 0,1,1 0,5.097" class="qsWlMZCW_21"></path>
        <path id="Ellipse_23" data-name="Ellipse 23" transform="translate(844.716 228.528)" fill="#fff" d="M0,5.097A5.097,5.097 0,1,1 10.194,5.097A5.097,5.097 0,1,1 0,5.097" class="qsWlMZCW_22"></path>
        <path id="Ellipse_24" data-name="Ellipse 24" transform="translate(747.234 163.107)" fill="#fff" d="M0,5.097A5.097,5.097 0,1,1 10.194,5.097A5.097,5.097 0,1,1 0,5.097" class="qsWlMZCW_23"></path>
        <path id="Ellipse_25" data-name="Ellipse 25" transform="translate(682.042 245.986)" fill="#fff" d="M0,5.097A5.097,5.097 0,1,1 10.194,5.097A5.097,5.097 0,1,1 0,5.097" class="qsWlMZCW_24"></path>
        <path id="Ellipse_26" data-name="Ellipse 26" transform="translate(1077.806 76.66)" fill="#fff" d="M0,5.097A5.097,5.097 0,1,1 10.194,5.097A5.097,5.097 0,1,1 0,5.097" class="qsWlMZCW_25"></path>
        <path id="Ellipse_27" data-name="Ellipse 27" transform="translate(1077.806 249.324)" fill="#fff" d="M0,5.097A5.097,5.097 0,1,1 10.194,5.097A5.097,5.097 0,1,1 0,5.097" class="qsWlMZCW_26"></path>
        <path id="Ellipse_28" data-name="Ellipse 28" transform="translate(955.578 192.211)" fill="#fff" d="M0,5.097A5.097,5.097 0,1,1 10.194,5.097A5.097,5.097 0,1,1 0,5.097" class="qsWlMZCW_27"></path>
        <path id="Ellipse_29" data-name="Ellipse 29" transform="translate(932.641 156.939)" fill="#fff" d="M0,5.097A5.097,5.097 0,1,1 10.194,5.097A5.097,5.097 0,1,1 0,5.097" class="qsWlMZCW_28"></path>
        <path id="Ellipse_30" data-name="Ellipse 30" transform="translate(921.402 221.52)" fill="#fff" d="M0,5.097A5.097,5.097 0,1,1 10.194,5.097A5.097,5.097 0,1,1 0,5.097" class="qsWlMZCW_29"></path>
        <path id="Ellipse_31" data-name="Ellipse 31" transform="translate(848.131 265.686)" fill="#fff" d="M0,5.097A5.097,5.097 0,1,1 10.194,5.097A5.097,5.097 0,1,1 0,5.097" class="qsWlMZCW_30"></path>
        <path id="Ellipse_32" data-name="Ellipse 32" transform="translate(712.421 359.855)" fill="#fff" d="M0,5.097A5.097,5.097 0,1,1 10.194,5.097A5.097,5.097 0,1,1 0,5.097" class="qsWlMZCW_31"></path>
        <path id="Ellipse_33" data-name="Ellipse 33" transform="translate(727.839 359.855)" fill="#fff" d="M0,5.097A5.097,5.097 0,1,1 10.194,5.097A5.097,5.097 0,1,1 0,5.097" class="qsWlMZCW_32"></path>
      </g>
      <g id="Layer_3" data-name="Layer 3" opacity="0.65">
        <path id="Path_2" data-name="Path 2" d="M356.032,53.723l32.494,11.468s50.971,6.371,64.988,17.2l14.654,3.823,8.92,4.46,15.928,28.034L505.122,134s11.468,2.778,19.547,23.166l5.1,8.283s13.38,11.035,15.291,18.044l1.708,2.345s-.229,5.1-7.875,5.938c0,0-29.945,17.407-52.882-22.733l-21.968-15.6S446,126.408,442.045,124.624s-33.972,2.166-53.519-9.735L379.2,106.4" fill="none" stroke="#fff" stroke-miterlimit="10" stroke-width="2.549" class="qsWlMZCW_33"></path>
      </g>
      <g id="Layer_2" data-name="Layer 2" opacity="0.65">
        <path id="Path_3" data-name="Path 3" d="M5.1,46.078S73.373-15.928,179.545,8.716l72.226,11.876s73.041,7.646,90.881,9.353L357.943,34.2,379.2,53.723" fill="none" stroke="#fff" stroke-miterlimit="10" stroke-width="2.549" class="qsWlMZCW_34"></path>
        <path id="Path_4" data-name="Path 4" d="M465.416,160.762s5.938,21.663,9.353,28.9a34,34,0,0,1,2.549,15.7s6.779,11.061,7.212,17.84-.841,17-28.034,5.53l-5.1-2.982-12.309-20.388-5.964-17.84a41.414,41.414,0,0,1-14.858-26.76s-38.228-29.716-32.29-34.405" fill="none" stroke="#fff" stroke-miterlimit="10" stroke-width="2.549" class="qsWlMZCW_35"></path>
        <path id="Path_5" data-name="Path 5" d="M452.469,232.988s4.46,20.159-20.822,6.371c0,0-14.45-5.53-17.2-26.556v-3.619l3.186-7.416" fill="none" stroke="#fff" stroke-miterlimit="10" stroke-width="2.549" class="qsWlMZCW_36"></path>
        <path id="Path_6" data-name="Path 6" d="M5.1,218.283l56.068-43.555c26.123-33.131,80.712-55.151,80.712-55.151l10.194,2.549s14.45,39.91,62.439,39.069S283.4,191.141,283.4,191.141l20.083,20.388L336.408,229.9l9.43,9.659,13.711,6.04c46.511-4.868,5.4-54.462,5.4-54.462l-14.017-11.8a77.4,77.4,0,0,0-14.527-11.468c-20.388-5.734-42.816-43.147-42.816-43.147,10.831-3.007,42.051-14.2,42.051-14.2,12.743,9.557,43.555,7.646,43.555,7.646" fill="none" stroke="#fff" stroke-miterlimit="10" stroke-width="2.549" class="qsWlMZCW_37"></path>
        <path id="Path_7" data-name="Path 7" d="M315.281,218.054l-3.211,4.919-1.682,4.052c1.682,44.192,29.308,15.291,29.308,15.291l4.638-4.384" fill="none" stroke="#fff" stroke-miterlimit="10" stroke-width="2.549" class="qsWlMZCW_38"></path>
        <path id="Path_8" data-name="Path 8" d="M349.457,201.768l-13.049,16.515,16.03,15.623s15.419,4.536,16.566-15.623Z" fill="none" stroke="#fff" stroke-miterlimit="10" stroke-width="2.549" class="qsWlMZCW_39"></path>
        <path id="Path_9" data-name="Path 9" d="M527.218,168.2s1.274,13.176,9.124,15.5" fill="none" stroke="#fff" stroke-miterlimit="10" stroke-width="2.549" class="qsWlMZCW_40"></path>
        <path id="Line_1" data-name="Line 1" transform="translate(381.11 56.272)" fill="none" stroke="#fff" stroke-miterlimit="10" stroke-width="2.549" d="M7.416,8.92L0,0" class="qsWlMZCW_41"></path>
        <path id="Path_10" data-name="Path 10" d="M309.139,146.159s10.194-6.295,18.859,0c0,0,9.353,16.744,1.172,18.375" fill="none" stroke="#fff" stroke-miterlimit="10" stroke-width="2.549" class="qsWlMZCW_42"></path>
        <path id="Path_11" data-name="Path 11" d="M345.838,141.011s-16.209-.586-16.158,8.512" fill="none" stroke="#fff" stroke-miterlimit="10" stroke-width="2.549" class="qsWlMZCW_43"></path>
        <path id="Path_12" data-name="Path 12" d="M1082.9,81.757l-66.262,11.468a194.836,194.836,0,0,0-79,11.468s-56.068-5.1-75.182,10.194c0,0-35.68-2.192-58.617,9.735,0,0-25.485,5.556-73.908,11.519,0,0-64.988-18.706-103.216,4.231,0,0-49.263-1.682-59.891,11.468s8.512,21.663,8.512,21.663,30.99,11.9,47.148,3.823l2.549-1.045-.433-4.893,3.823,4.664s29.945,1.274,39.706-2.752l5.734-1.478s-6.371-11.468-3.823-15.725" fill="none" stroke="#fff" stroke-miterlimit="10" stroke-width="2.549" class="qsWlMZCW_44"></path>
        <path id="Path_13" data-name="Path 13" d="M677.378,173.505,700.315,183.7s8.92,2.549,24.211,0" fill="none" stroke="#fff" stroke-miterlimit="10" stroke-width="2.549" class="qsWlMZCW_45"></path>
        <path id="Path_14" data-name="Path 14" d="M722.386,168.2a50.258,50.258,0,0,0,4.689,18.477,134.847,134.847,0,0,0,15.7,13.176l2.549,3.39s-15.7,11.9-20.8,17l-8.359,7.646" fill="none" stroke="#fff" stroke-miterlimit="10" stroke-width="2.549" class="qsWlMZCW_46"></path>
        <path id="Path_15" data-name="Path 15" d="M752.331,168.2s9.684,27.6,26.76,30.149" fill="none" stroke="#fff" stroke-miterlimit="10" stroke-width="2.549" class="qsWlMZCW_47"></path>
        <path id="Path_16" data-name="Path 16" d="M810.438,179.188,782.4,203.45l-11.469,7.009s-49.06,10.831-56.705,19.114l-22.937,9.557s-12.743,13.38,7.008,27.4c0,0,15.291,12.743,47.148,5.1l20.388-12.743,35.68-8.92,29.308-3.186A61.163,61.163,0,0,0,849.94,233.4" fill="none" stroke="#fff" stroke-miterlimit="10" stroke-width="2.549" class="qsWlMZCW_48"></path>
        <path id="Path_17" data-name="Path 17" d="M706.253,274.071l-2.115,19.216s-8.079,13.609-3.186,36.954l1.86,19.981s6.83,24.619,25.1,10.194c0,0,8.92-8.92,2.982-31.449l-8.512-5.5" fill="none" stroke="#fff" stroke-miterlimit="10" stroke-width="2.549" class="qsWlMZCW_49"></path>
        <path id="Path_18" data-name="Path 18" d="M732.937,325.577l-2.039,3.39s15.47-23.319,10.6-39.5a14.4,14.4,0,0,0-16.973-9.328" fill="none" stroke="#fff" stroke-miterlimit="10" stroke-width="2.549" class="qsWlMZCW_50"></path>
        <path id="Path_19" data-name="Path 19" d="M768.489,262.7S741.3,275.6,741.5,289.464" fill="none" stroke="#fff" stroke-miterlimit="10" stroke-width="2.549" class="qsWlMZCW_51"></path>
        <path id="Path_20" data-name="Path 20" d="M842.8,279.779c-5.734-.153-29.614-5.913-33.131-7.824s-15.928-15.928-15.928-15.928l-2.166-3.593" fill="none" stroke="#fff" stroke-miterlimit="10" stroke-width="2.549" class="qsWlMZCW_52"></path>
        <path id="Path_21" data-name="Path 21" d="M729.471,358.224l4.511,6.728s6.371,7.034,18.477-5.4l5.428-8.283a45.543,45.543,0,0,0,3.823-22.3,36.75,36.75,0,0,0,14.96-26.123s7.849-11.265,25.817-19.42h3.186l-4.791,16.566L798.026,317.5s.306,19.445,2.549,21.357l3.186,12.411s9.735,15.291,19.675,3.517c0,0,7.085-4.46,5.811-24.211,0,0-11.468-8.563-15.623-5.4" fill="none" stroke="#fff" stroke-miterlimit="10" stroke-width="2.549" class="qsWlMZCW_53"></path>
        <path id="Path_22" data-name="Path 22" d="M829.272,328.966s5.25-4.766,5.25-17.509c0,0-8.589-12.743-16.234-8.283" fill="none" stroke="#fff" stroke-miterlimit="10" stroke-width="2.549" class="qsWlMZCW_54"></path>
        <path id="Path_23" data-name="Path 23" d="M834.522,311.458l6.7-7.085c8.92-19.726,23.88-20.949,23.88-20.949s26.123,8.589,84.1-27.4c0,0,11.469,8.589,31.22-12.437,0,0,9.251-9.863,33.462-6.677,0,0,47.454,4.766,66.262,15.928l2.752,1.911" fill="none" stroke="#fff" stroke-miterlimit="10" stroke-width="2.549" class="qsWlMZCW_55"></path>
        <path id="Path_24" data-name="Path 24" d="M842.8,250.828s18.069,3.186,71.589-14.552l11.468-9.659" fill="none" stroke="#fff" stroke-miterlimit="10" stroke-width="2.549" class="qsWlMZCW_56"></path>
        <path id="Path_25" data-name="Path 25" d="M853.228,270.783s6.346,11.825,11.876,12.743" fill="none" stroke="#fff" stroke-miterlimit="10" stroke-width="2.549" class="qsWlMZCW_57"></path>
        <path id="Path_26" data-name="Path 26" d="M960.8,197.308s11.468,46.282,19.751,46.282" fill="none" stroke="#fff" stroke-miterlimit="10" stroke-width="2.549" class="qsWlMZCW_58"></path>
        <path id="Path_27" data-name="Path 27" d="M937.865,162.037s18.451,21.663,0,45.874" fill="none" stroke="#fff" stroke-miterlimit="10" stroke-width="2.549" class="qsWlMZCW_59"></path>
        <path id="Path_28" data-name="Path 28" d="M700.85,243.921l10.933,20.694,12.743-8.589s12.743-18.426-8.359-18.477l-15.291,4.766Z" fill="none" stroke="#fff" stroke-miterlimit="10" stroke-width="2.549" class="qsWlMZCW_60"></path>
        <path id="Path_29" data-name="Path 29" d="M761.582,328.966a43.326,43.326,0,0,1-16.26,0" fill="none" stroke="#fff" stroke-miterlimit="10" stroke-width="2.549" class="qsWlMZCW_61"></path>
        <path id="Path_30" data-name="Path 30" d="M776.542,302.844s-8.487-17.2-14.96-13.38" fill="none" stroke="#fff" stroke-miterlimit="10" stroke-width="2.549" class="qsWlMZCW_62"></path>
        <path id="Path_31" data-name="Path 31" d="M390.233,173.505l-4.868-4.231s-13.609-13.813-17.228-18.069c0,0,2.141,31.22-4.664,33.768l.535,5.25" fill="none" stroke="#fff" stroke-miterlimit="10" stroke-width="2.549" class="qsWlMZCW_63"></path>
        <path id="Path_32" data-name="Path 32" d="M414.445,212.8l-5.734-7.442s-17.407-22.3-18.477-31.857l9.251-8.92" fill="none" stroke="#fff" stroke-miterlimit="10" stroke-width="2.549" class="qsWlMZCW_64"></path>
        <path id="Path_33" data-name="Path 33" d="M219.685,130.817s2.345,22.3,10.194,31.22" fill="none" stroke="#fff" stroke-miterlimit="10" stroke-width="2.549" class="qsWlMZCW_65"></path>
        <path id="Path_34" data-name="Path 34" d="M200.571,137.825s9.047,22.606,19.114,23.421" fill="none" stroke="#fff" stroke-miterlimit="10" stroke-width="2.549" class="qsWlMZCW_66"></path>
        <path id="Path_35" data-name="Path 35" d="M127.733,90.27s21.816,22.606,22.478,31.424" fill="none" stroke="#fff" stroke-miterlimit="10" stroke-width="2.549" class="qsWlMZCW_67"></path>
        <path id="Path_36" data-name="Path 36" d="M210.128,13.737S287.909,47.276,327.361,44.8" fill="none" stroke="#fff" stroke-miterlimit="10" stroke-width="2.549" class="qsWlMZCW_68"></path>
        <path id="Ellipse_34" data-name="Ellipse 34" transform="translate(810.056 355.038)" fill="#fff" d="M0,5.097A5.097,5.097 0,1,1 10.194,5.097A5.097,5.097 0,1,1 0,5.097" class="qsWlMZCW_69"></path>
      </g>
      <g id="Layer_5" data-name="Layer 5">
        <path id="Ellipse_35" data-name="Ellipse 35" transform="translate(105.867)" fill="#fff" d="M0,5.097A5.097,5.097 0,1,1 10.194,5.097A5.097,5.097 0,1,1 0,5.097" class="qsWlMZCW_70"></path>
        <path id="Ellipse_36" data-name="Ellipse 36" transform="translate(218.003 10.194)" fill="#fff" d="M0,5.097A5.097,5.097 0,1,1 10.194,5.097A5.097,5.097 0,1,1 0,5.097" class="qsWlMZCW_71"></path>
        <path id="Ellipse_37" data-name="Ellipse 37" transform="translate(138.998 112.136)" fill="#fff" d="M0,5.097A5.097,5.097 0,1,1 10.194,5.097A5.097,5.097 0,1,1 0,5.097" class="qsWlMZCW_72"></path>
      </g>
    </g>
  </g>
<style data-made-with="vivus-instant">.qsWlMZCW_0{stroke-dasharray:3176 3178;stroke-dashoffset:3177;animation:qsWlMZCW_draw 4000ms ease 0ms forwards;}.qsWlMZCW_1{stroke-dasharray:33 35;stroke-dashoffset:34;animation:qsWlMZCW_draw 4000ms ease 0ms forwards;}.qsWlMZCW_2{stroke-dasharray:33 35;stroke-dashoffset:34;animation:qsWlMZCW_draw 4000ms ease 0ms forwards;}.qsWlMZCW_3{stroke-dasharray:41 43;stroke-dashoffset:42;animation:qsWlMZCW_draw 4000ms ease 0ms forwards;}.qsWlMZCW_4{stroke-dasharray:33 35;stroke-dashoffset:34;animation:qsWlMZCW_draw 4000ms ease 0ms forwards;}.qsWlMZCW_5{stroke-dasharray:33 35;stroke-dashoffset:34;animation:qsWlMZCW_draw 4000ms ease 0ms forwards;}.qsWlMZCW_6{stroke-dasharray:33 35;stroke-dashoffset:34;animation:qsWlMZCW_draw 4000ms ease 0ms forwards;}.qsWlMZCW_7{stroke-dasharray:17 19;stroke-dashoffset:18;animation:qsWlMZCW_draw 4000ms ease 0ms forwards;}.qsWlMZCW_8{stroke-dasharray:33 35;stroke-dashoffset:34;animation:qsWlMZCW_draw 4000ms ease 0ms forwards;}.qsWlMZCW_9{stroke-dasharray:33 35;stroke-dashoffset:34;animation:qsWlMZCW_draw 4000ms ease 0ms forwards;}.qsWlMZCW_10{stroke-dasharray:33 35;stroke-dashoffset:34;animation:qsWlMZCW_draw 4000ms ease 0ms forwards;}.qsWlMZCW_11{stroke-dasharray:33 35;stroke-dashoffset:34;animation:qsWlMZCW_draw 4000ms ease 0ms forwards;}.qsWlMZCW_12{stroke-dasharray:33 35;stroke-dashoffset:34;animation:qsWlMZCW_draw 4000ms ease 0ms forwards;}.qsWlMZCW_13{stroke-dasharray:33 35;stroke-dashoffset:34;animation:qsWlMZCW_draw 4000ms ease 0ms forwards;}.qsWlMZCW_14{stroke-dasharray:33 35;stroke-dashoffset:34;animation:qsWlMZCW_draw 4000ms ease 0ms forwards;}.qsWlMZCW_15{stroke-dasharray:33 35;stroke-dashoffset:34;animation:qsWlMZCW_draw 4000ms ease 0ms forwards;}.qsWlMZCW_16{stroke-dasharray:33 35;stroke-dashoffset:34;animation:qsWlMZCW_draw 4000ms ease 0ms forwards;}.qsWlMZCW_17{stroke-dasharray:33 35;stroke-dashoffset:34;animation:qsWlMZCW_draw 4000ms ease 0ms forwards;}.qsWlMZCW_18{stroke-dasharray:33 35;stroke-dashoffset:34;animation:qsWlMZCW_draw 4000ms ease 0ms forwards;}.qsWlMZCW_19{stroke-dasharray:33 35;stroke-dashoffset:34;animation:qsWlMZCW_draw 4000ms ease 0ms forwards;}.qsWlMZCW_20{stroke-dasharray:33 35;stroke-dashoffset:34;animation:qsWlMZCW_draw 4000ms ease 0ms forwards;}.qsWlMZCW_21{stroke-dasharray:33 35;stroke-dashoffset:34;animation:qsWlMZCW_draw 4000ms ease 0ms forwards;}.qsWlMZCW_22{stroke-dasharray:33 35;stroke-dashoffset:34;animation:qsWlMZCW_draw 4000ms ease 0ms forwards;}.qsWlMZCW_23{stroke-dasharray:33 35;stroke-dashoffset:34;animation:qsWlMZCW_draw 4000ms ease 0ms forwards;}.qsWlMZCW_24{stroke-dasharray:33 35;stroke-dashoffset:34;animation:qsWlMZCW_draw 4000ms ease 0ms forwards;}.qsWlMZCW_25{stroke-dasharray:33 35;stroke-dashoffset:34;animation:qsWlMZCW_draw 4000ms ease 0ms forwards;}.qsWlMZCW_26{stroke-dasharray:33 35;stroke-dashoffset:34;animation:qsWlMZCW_draw 4000ms ease 0ms forwards;}.qsWlMZCW_27{stroke-dasharray:33 35;stroke-dashoffset:34;animation:qsWlMZCW_draw 4000ms ease 0ms forwards;}.qsWlMZCW_28{stroke-dasharray:33 35;stroke-dashoffset:34;animation:qsWlMZCW_draw 4000ms ease 0ms forwards;}.qsWlMZCW_29{stroke-dasharray:33 35;stroke-dashoffset:34;animation:qsWlMZCW_draw 4000ms ease 0ms forwards;}.qsWlMZCW_30{stroke-dasharray:33 35;stroke-dashoffset:34;animation:qsWlMZCW_draw 4000ms ease 0ms forwards;}.qsWlMZCW_31{stroke-dasharray:33 35;stroke-dashoffset:34;animation:qsWlMZCW_draw 4000ms ease 0ms forwards;}.qsWlMZCW_32{stroke-dasharray:33 35;stroke-dashoffset:34;animation:qsWlMZCW_draw 4000ms ease 0ms forwards;}.qsWlMZCW_33{stroke-dasharray:453 455;stroke-dashoffset:454;animation:qsWlMZCW_draw 4000ms ease 0ms forwards;}.qsWlMZCW_34{stroke-dasharray:394 396;stroke-dashoffset:395;animation:qsWlMZCW_draw 4000ms ease 0ms forwards;}.qsWlMZCW_35{stroke-dasharray:231 233;stroke-dashoffset:232;animation:qsWlMZCW_draw 4000ms ease 0ms forwards;}.qsWlMZCW_36{stroke-dasharray:76 78;stroke-dashoffset:77;animation:qsWlMZCW_draw 4000ms ease 0ms forwards;}.qsWlMZCW_37{stroke-dasharray:692 694;stroke-dashoffset:693;animation:qsWlMZCW_draw 4000ms ease 0ms forwards;}.qsWlMZCW_38{stroke-dasharray:67 69;stroke-dashoffset:68;animation:qsWlMZCW_draw 4000ms ease 0ms forwards;}.qsWlMZCW_39{stroke-dasharray:96 98;stroke-dashoffset:97;animation:qsWlMZCW_draw 4000ms ease 0ms forwards;}.qsWlMZCW_40{stroke-dasharray:19 21;stroke-dashoffset:20;animation:qsWlMZCW_draw 4000ms ease 0ms forwards;}.qsWlMZCW_41{stroke-dasharray:12 14;stroke-dashoffset:13;animation:qsWlMZCW_draw 4000ms ease 0ms forwards;}.qsWlMZCW_42{stroke-dasharray:41 43;stroke-dashoffset:42;animation:qsWlMZCW_draw 4000ms ease 0ms forwards;}.qsWlMZCW_43{stroke-dasharray:21 23;stroke-dashoffset:22;animation:qsWlMZCW_draw 4000ms ease 0ms forwards;}.qsWlMZCW_44{stroke-dasharray:680 682;stroke-dashoffset:681;animation:qsWlMZCW_draw 4000ms ease 0ms forwards;}.qsWlMZCW_45{stroke-dasharray:50 52;stroke-dashoffset:51;animation:qsWlMZCW_draw 4000ms ease 0ms forwards;}.qsWlMZCW_46{stroke-dasharray:83 85;stroke-dashoffset:84;animation:qsWlMZCW_draw 4000ms ease 0ms forwards;}.qsWlMZCW_47{stroke-dasharray:43 45;stroke-dashoffset:44;animation:qsWlMZCW_draw 4000ms ease 0ms forwards;}.qsWlMZCW_48{stroke-dasharray:331 333;stroke-dashoffset:332;animation:qsWlMZCW_draw 4000ms ease 0ms forwards;}.qsWlMZCW_49{stroke-dasharray:154 156;stroke-dashoffset:155;animation:qsWlMZCW_draw 4000ms ease 0ms forwards;}.qsWlMZCW_50{stroke-dasharray:68 70;stroke-dashoffset:69;animation:qsWlMZCW_draw 4000ms ease 0ms forwards;}.qsWlMZCW_51{stroke-dasharray:40 42;stroke-dashoffset:41;animation:qsWlMZCW_draw 4000ms ease 0ms forwards;}.qsWlMZCW_52{stroke-dasharray:61 63;stroke-dashoffset:62;animation:qsWlMZCW_draw 4000ms ease 0ms forwards;}.qsWlMZCW_53{stroke-dasharray:266 268;stroke-dashoffset:267;animation:qsWlMZCW_draw 4000ms ease 0ms forwards;}.qsWlMZCW_54{stroke-dasharray:39 41;stroke-dashoffset:40;animation:qsWlMZCW_draw 4000ms ease 0ms forwards;}.qsWlMZCW_55{stroke-dasharray:277 279;stroke-dashoffset:278;animation:qsWlMZCW_draw 4000ms ease 0ms forwards;}.qsWlMZCW_56{stroke-dasharray:89 91;stroke-dashoffset:90;animation:qsWlMZCW_draw 4000ms ease 0ms forwards;}.qsWlMZCW_57{stroke-dasharray:18 20;stroke-dashoffset:19;animation:qsWlMZCW_draw 4000ms ease 0ms forwards;}.qsWlMZCW_58{stroke-dasharray:52 54;stroke-dashoffset:53;animation:qsWlMZCW_draw 4000ms ease 0ms forwards;}.qsWlMZCW_59{stroke-dasharray:50 52;stroke-dashoffset:51;animation:qsWlMZCW_draw 4000ms ease 0ms forwards;}.qsWlMZCW_60{stroke-dasharray:85 87;stroke-dashoffset:86;animation:qsWlMZCW_draw 4000ms ease 0ms forwards;}.qsWlMZCW_61{stroke-dasharray:17 19;stroke-dashoffset:18;animation:qsWlMZCW_draw 4000ms ease 0ms forwards;}.qsWlMZCW_62{stroke-dasharray:22 24;stroke-dashoffset:23;animation:qsWlMZCW_draw 4000ms ease 0ms forwards;}.qsWlMZCW_63{stroke-dasharray:72 74;stroke-dashoffset:73;animation:qsWlMZCW_draw 4000ms ease 0ms forwards;}.qsWlMZCW_64{stroke-dasharray:60 62;stroke-dashoffset:61;animation:qsWlMZCW_draw 4000ms ease 0ms forwards;}.qsWlMZCW_65{stroke-dasharray:34 36;stroke-dashoffset:35;animation:qsWlMZCW_draw 4000ms ease 0ms forwards;}.qsWlMZCW_66{stroke-dasharray:32 34;stroke-dashoffset:33;animation:qsWlMZCW_draw 4000ms ease 0ms forwards;}.qsWlMZCW_67{stroke-dasharray:40 42;stroke-dashoffset:41;animation:qsWlMZCW_draw 4000ms ease 0ms forwards;}.qsWlMZCW_68{stroke-dasharray:123 125;stroke-dashoffset:124;animation:qsWlMZCW_draw 4000ms ease 0ms forwards;}.qsWlMZCW_69{stroke-dasharray:33 35;stroke-dashoffset:34;animation:qsWlMZCW_draw 4000ms ease 0ms forwards;}.qsWlMZCW_70{stroke-dasharray:33 35;stroke-dashoffset:34;animation:qsWlMZCW_draw 4000ms ease 0ms forwards;}.qsWlMZCW_71{stroke-dasharray:33 35;stroke-dashoffset:34;animation:qsWlMZCW_draw 4000ms ease 0ms forwards;}.qsWlMZCW_72{stroke-dasharray:33 35;stroke-dashoffset:34;animation:qsWlMZCW_draw 4000ms ease 0ms forwards;}@keyframes qsWlMZCW_draw{100%{stroke-dashoffset:0;}}@keyframes qsWlMZCW_fade{0%{stroke-opacity:1;}95.1219512195122%{stroke-opacity:1;}100%{stroke-opacity:0;}}</style></svg>
